<?xml version="1.0" encoding="UTF-8" standalone="no"?>
<svg
   xmlns:dc="http://purl.org/dc/elements/1.1/"
   xmlns:cc="http://creativecommons.org/ns#"
   xmlns:rdf="http://www.w3.org/1999/02/22-rdf-syntax-ns#"
   xmlns:svg="http://www.w3.org/2000/svg"
   xmlns="http://www.w3.org/2000/svg"
   xmlns:sodipodi="http://sodipodi.sourceforge.net/DTD/sodipodi-0.dtd"
   xmlns:inkscape="http://www.inkscape.org/namespaces/inkscape"
   viewBox="0 0 24 24"
   version="1.1"
   id="svg4"
   sodipodi:docname="files_confidential.svg"
   inkscape:version="0.92.5 (2060ec1f9f, 2020-04-08)">
  <metadata
     id="metadata10">
    <rdf:RDF>
      <cc:Work
         rdf:about="">
        <dc:format>image/svg+xml</dc:format>
        <dc:type
           rdf:resource="http://purl.org/dc/dcmitype/StillImage" />
      </cc:Work>
    </rdf:RDF>
  </metadata>
  <defs
     id="defs8" />
  <sodipodi:namedview
     pagecolor="#ffffff"
     bordercolor="#666666"
     borderopacity="1"
     objecttolerance="10"
     gridtolerance="10"
     guidetolerance="10"
     inkscape:pageopacity="0"
     inkscape:pageshadow="2"
     inkscape:window-width="1920"
     inkscape:window-height="1043"
     id="namedview6"
     showgrid="false"
     inkscape:zoom="9.8333333"
     inkscape:cx="-8.0338983"
     inkscape:cy="12"
     inkscape:window-x="0"
     inkscape:window-y="0"
     inkscape:window-maximized="1"
     inkscape:current-layer="svg4" />
  <path
     d="m 11.60678,22.128813 c 0,0.53017 0.115254,1.037289 0.311186,1.498306 H 3.5389831 c -1.2793221,0 -2.3050848,-1.025763 -2.3050848,-2.305085 V 2.8813559 c 0,-1.2677966 1.0257627,-2.3050847 2.3050848,-2.3050847 H 17.369491 c 1.279322,0 2.305085,1.0372881 2.305085,2.3050847 v 7.0420339 c -0.368814,-0.080678 -0.760678,-0.1267797 -1.152542,-0.1267797 -0.391865,0 -0.783729,0.046101 -1.152543,0.1267797 V 2.8813559 H 11.60678 V 12.101695 L 8.7254237,9.5084745 5.8440678,12.101695 V 2.8813559 H 3.5389831 V 21.322034 H 11.60678 v 0.806779 M 23.132203,18.21017 v 4.033898 c 0,0.691525 -0.691525,1.383051 -1.498305,1.383051 h -6.338982 c -0.691526,0 -1.383051,-0.691526 -1.383051,-1.498306 v -4.033897 c 0,-0.691526 0.691525,-1.383052 1.383051,-1.383052 v -1.728812 c 0,-1.613561 1.613559,-2.881357 3.227118,-2.881357 1.61356,0 3.227119,1.267796 3.227119,2.881357 v 1.728812 c 0.691525,0 1.38305,0.691526 1.38305,1.498306 m -2.881356,-3.227118 c 0,-0.922035 -0.806779,-1.498306 -1.728813,-1.498306 -0.922033,0 -1.728814,0.576271 -1.728814,1.498306 v 1.728812 h 3.457627 z"
     id="path2"
     inkscape:connector-curvature="0"
     style="stroke-width:1.15254235" />
</svg>
